<svg width="16" height="16" viewBox="0 0 16 16" fill="none" xmlns="http://www.w3.org/2000/svg">
<path d="M15.6273 1.34072L14.6591 0.372552C14.5424 0.254526 14.4034 0.160826 14.2503 0.0968769C14.0971 0.0329278 13.9327 0 13.7667 0C13.6008 0 13.4364 0.0329278 13.2832 0.0968769C13.1301 0.160826 12.9911 0.254526 12.8744 0.372552L8.4209 4.82601V7.57895H11.1738L15.6273 3.12548C15.7453 3.00876 15.839 2.86979 15.903 2.71661C15.9669 2.56343 15.9998 2.39909 15.9998 2.2331C15.9998 2.06711 15.9669 1.90276 15.903 1.74959C15.839 1.59641 15.7453 1.45744 15.6273 1.34072ZM10.5929 6.27407H9.72578V5.40691L12.6302 2.50249L13.4974 3.3696L10.5929 6.27407Z" fill="#525252"/>
<path d="M13.4737 14.316H1.68421V2.52649H6.73684V0.842285H1.68421C1.23793 0.843591 0.810305 1.02145 0.494737 1.33702C0.179169 1.65259 0.00130631 2.08022 0 2.52649V14.316C0.00130631 14.7622 0.179169 15.1899 0.494737 15.5054C0.810305 15.821 1.23793 15.9989 1.68421 16.0002H13.4737C13.92 15.9989 14.3476 15.821 14.6632 15.5054C14.9787 15.1899 15.1566 14.7622 15.1579 14.316V9.26333H13.4737V14.316Z" fill="#525252"/>
</svg>
