<svg width="16" height="16" viewBox="0 0 16 16" fill="none" xmlns="http://www.w3.org/2000/svg">
<path d="M2.68 8.72727C3.632 8.72727 3.816 10.1818 5.344 10.1818C6.904 10.1818 7.016 8.72727 8.008 8.72727C8.96 8.72727 9.144 10.1818 10.672 10.1818C12.232 10.1818 12.344 8.72727 13.336 8.72727C14.288 8.72727 14.456 10.1527 15.984 10.1818V7.27273C15.032 7.27273 14.848 5.81818 13.32 5.81818C11.76 5.81818 11.648 7.27273 10.656 7.27273C9.704 7.27273 9.52 5.81818 7.992 5.81818C6.432 5.81818 6.32 7.27273 5.328 7.27273C4.376 7.27273 4.192 5.81818 2.664 5.81818C1.104 5.81818 0.992 7.27273 0 7.27273V10.1818C1.52 10.1818 1.736 8.72727 2.68 8.72727ZM13.336 11.6364C11.776 11.6364 11.664 13.0909 10.672 13.0909C9.72 13.0909 9.536 11.6364 8.008 11.6364C6.448 11.6364 6.328 13.0909 5.336 13.0909C4.344 13.0909 4.232 11.6364 2.672 11.6364C1.112 11.6364 0.992 13.0909 0 13.0909V16C1.56 16 1.688 14.5455 2.672 14.5455C3.664 14.5455 3.776 16 5.336 16C6.896 16 7.016 14.5455 8.008 14.5455C8.96 14.5455 9.144 16 10.672 16C12.224 16 12.344 14.5455 13.336 14.5455C14.288 14.5455 14.472 16 16 16V13.0909C15.008 13.0909 14.896 11.6364 13.336 11.6364ZM2.68 2.90909C3.632 2.90909 3.816 4.36364 5.344 4.36364C6.904 4.36364 7.016 2.90909 8.008 2.90909C8.96 2.90909 9.144 4.36364 10.672 4.36364C12.232 4.36364 12.344 2.90909 13.336 2.90909C14.288 2.90909 14.456 4.33455 15.984 4.36364V1.45455C15.032 1.45455 14.848 0 13.32 0C11.76 0 11.648 1.45455 10.656 1.45455C9.704 1.45455 9.52 0 7.992 0C6.432 0 6.32 1.45455 5.328 1.45455C4.376 1.45455 4.192 0 2.664 0C1.104 0 0.992 1.45455 0 1.45455V4.36364C1.52 4.36364 1.736 2.90909 2.68 2.90909Z" fill="#525252"/>
</svg>
