<svg width="17" height="16" viewBox="0 0 17 16" fill="none" xmlns="http://www.w3.org/2000/svg">
<path d="M12.75 6.8H11.9C11.6746 6.8 11.4584 6.88956 11.299 7.04896C11.1396 7.20837 11.05 7.42457 11.05 7.65C11.05 7.87544 11.1396 8.09164 11.299 8.25104C11.4584 8.41045 11.6746 8.5 11.9 8.5H12.75C12.9754 8.5 13.1916 8.41045 13.351 8.25104C13.5104 8.09164 13.6 7.87544 13.6 7.65C13.6 7.42457 13.5104 7.20837 13.351 7.04896C13.1916 6.88956 12.9754 6.8 12.75 6.8ZM12.75 10.2H11.9C11.6746 10.2 11.4584 10.2896 11.299 10.449C11.1396 10.6084 11.05 10.8246 11.05 11.05C11.05 11.2754 11.1396 11.4916 11.299 11.651C11.4584 11.8105 11.6746 11.9 11.9 11.9H12.75C12.9754 11.9 13.1916 11.8105 13.351 11.651C13.5104 11.4916 13.6 11.2754 13.6 11.05C13.6 10.8246 13.5104 10.6084 13.351 10.449C13.1916 10.2896 12.9754 10.2 12.75 10.2ZM7.65 5.1H12.75C12.9754 5.1 13.1916 5.01045 13.351 4.85104C13.5104 4.69164 13.6 4.47544 13.6 4.25C13.6 4.02457 13.5104 3.80837 13.351 3.64896C13.1916 3.48955 12.9754 3.4 12.75 3.4H7.65C7.42457 3.4 7.20837 3.48955 7.04896 3.64896C6.88955 3.80837 6.8 4.02457 6.8 4.25C6.8 4.47544 6.88955 4.69164 7.04896 4.85104C7.20837 5.01045 7.42457 5.1 7.65 5.1ZM16.15 0H4.25C4.02457 0 3.80837 0.0895533 3.64896 0.248959C3.48955 0.408365 3.4 0.624566 3.4 0.85V3.4H0.85C0.624566 3.4 0.408365 3.48955 0.248959 3.64896C0.0895533 3.80837 0 4.02457 0 4.25V12.75C0 13.4263 0.26866 14.0749 0.746878 14.5531C1.2251 15.0313 1.8737 15.3 2.55 15.3H13.6C14.5017 15.3 15.3665 14.9418 16.0042 14.3042C16.6418 13.6665 17 12.8017 17 11.9V0.85C17 0.624566 16.9104 0.408365 16.751 0.248959C16.5916 0.0895533 16.3754 0 16.15 0ZM3.4 12.75C3.4 12.9754 3.31045 13.1916 3.15104 13.351C2.99163 13.5105 2.77543 13.6 2.55 13.6C2.32457 13.6 2.10837 13.5105 1.94896 13.351C1.78955 13.1916 1.7 12.9754 1.7 12.75V5.1H3.4V12.75ZM15.3 11.9C15.3 12.3509 15.1209 12.7833 14.8021 13.1021C14.4833 13.4209 14.0509 13.6 13.6 13.6H4.947C5.04596 13.3274 5.0977 13.04 5.1 12.75V1.7H15.3V11.9ZM7.65 8.5H8.5C8.72543 8.5 8.94163 8.41045 9.10104 8.25104C9.26045 8.09164 9.35 7.87544 9.35 7.65C9.35 7.42457 9.26045 7.20837 9.10104 7.04896C8.94163 6.88956 8.72543 6.8 8.5 6.8H7.65C7.42457 6.8 7.20837 6.88956 7.04896 7.04896C6.88955 7.20837 6.8 7.42457 6.8 7.65C6.8 7.87544 6.88955 8.09164 7.04896 8.25104C7.20837 8.41045 7.42457 8.5 7.65 8.5ZM7.65 11.9H8.5C8.72543 11.9 8.94163 11.8105 9.10104 11.651C9.26045 11.4916 9.35 11.2754 9.35 11.05C9.35 10.8246 9.26045 10.6084 9.10104 10.449C8.94163 10.2896 8.72543 10.2 8.5 10.2H7.65C7.42457 10.2 7.20837 10.2896 7.04896 10.449C6.88955 10.6084 6.8 10.8246 6.8 11.05C6.8 11.2754 6.88955 11.4916 7.04896 11.651C7.20837 11.8105 7.42457 11.9 7.65 11.9Z" fill="white"/>
</svg>
