<svg width="16" height="16" viewBox="0 0 16 16" fill="none" xmlns="http://www.w3.org/2000/svg">
<path d="M14.1733 8.36078H11.6287V7.08847H14.1733V8.36078ZM14.1733 9.08778H11.6287V10.3601H14.1733V9.08778ZM14.1733 3.08984H11.6287V4.36212H14.1733V3.08984ZM14.1733 5.08915H11.6287V6.36143H14.1733V5.08915ZM14.1733 11.0871H11.6287V12.3594H14.1733V11.0871V11.0871ZM15.9309 13.5953C15.8582 13.9734 15.4038 13.9825 15.1003 13.9952H9.44768V15.631H8.31897L0 14.1769V1.45587L8.36806 0H9.44768V1.44859H14.9058C15.213 1.46131 15.5511 1.4395 15.8182 1.62306C16.0054 1.89206 15.9873 2.23378 16 2.54275L15.9927 12.005C15.9837 12.5339 16.0418 13.0737 15.9309 13.5953ZM6.66497 10.7436C6.16334 9.72578 5.65262 8.71518 5.15278 7.69734C5.64715 6.70678 6.13428 5.71259 6.61956 4.71837C6.20697 4.73837 5.79437 4.76381 5.38362 4.7929C5.07644 5.5399 4.71837 6.26693 4.47847 7.0394C4.2549 6.31056 3.95865 5.60897 3.68784 4.89831C3.28797 4.92012 2.88809 4.94375 2.48825 4.96737C2.90991 5.898 3.35887 6.81581 3.76781 7.75187C3.28615 8.66065 2.83541 9.58218 2.36828 10.4964C2.76631 10.5127 3.16437 10.5291 3.56241 10.5346C3.84597 9.81118 4.19856 9.11506 4.44575 8.37712C4.6675 9.16959 5.04372 9.90206 5.35272 10.66C5.79075 10.6909 6.22694 10.7182 6.66497 10.7436ZM15.1331 2.31181H9.44768V3.08984H10.9017V4.36212H9.44768V5.08915H10.9017V6.36143H9.44768V7.08847H10.9017V8.36078H9.44768V9.08778H10.9017V10.3601H9.44768V11.0871H10.9017V12.3594H9.44768V13.1999H15.1331V2.31181Z" fill="white"/>
</svg>
