<svg width="14" height="16" viewBox="0 0 14 16" fill="none" xmlns="http://www.w3.org/2000/svg">
<path d="M3.36224 8.8016C3.26323 8.8016 3.16827 8.84374 3.09825 8.91876C3.02824 8.99377 2.98891 9.09551 2.98891 9.2016V11.6016C2.98891 11.7077 3.02824 11.8094 3.09825 11.8844C3.16827 11.9595 3.26323 12.0016 3.36224 12.0016C3.46125 12.0016 3.55621 11.9595 3.62623 11.8844C3.69624 11.8094 3.73557 11.7077 3.73557 11.6016V11.2016H4.10667C4.40371 11.2016 4.68859 11.0752 4.89863 10.8501C5.10867 10.6251 5.22667 10.3199 5.22667 10.0016C5.22667 9.68334 5.10867 9.37812 4.89863 9.15307C4.68859 8.92803 4.40371 8.8016 4.10667 8.8016H3.36224ZM4.10667 10.4016H3.73557V9.6016H4.10667C4.20568 9.6016 4.30064 9.64374 4.37065 9.71876C4.44067 9.79377 4.48 9.89551 4.48 10.0016C4.48 10.1077 4.44067 10.2094 4.37065 10.2844C4.30064 10.3595 4.20568 10.4016 4.10667 10.4016ZM8.95851 9.2016C8.95851 9.09551 8.99784 8.99377 9.06785 8.91876C9.13787 8.84374 9.23283 8.8016 9.33184 8.8016H10.4556C10.5546 8.8016 10.6495 8.84374 10.7196 8.91876C10.7896 8.99377 10.8289 9.09551 10.8289 9.2016C10.8289 9.30769 10.7896 9.40943 10.7196 9.48444C10.6495 9.55946 10.5546 9.6016 10.4556 9.6016H9.70443L9.70368 10.4032H10.4556C10.5546 10.4032 10.6495 10.4453 10.7196 10.5204C10.7896 10.5954 10.8289 10.6971 10.8289 10.8032C10.8289 10.9093 10.7896 11.011 10.7196 11.086C10.6495 11.1611 10.5546 11.2032 10.4556 11.2032H9.70368L9.70517 11.6008C9.70527 11.6533 9.69571 11.7054 9.67704 11.7539C9.65837 11.8025 9.63095 11.8467 9.59635 11.8839C9.52648 11.959 9.4316 12.0014 9.33259 12.0016C9.23357 12.0018 9.13854 11.9599 9.06838 11.885C8.99823 11.8101 8.9587 11.7085 8.95851 11.6024L8.95627 10.804V10.8024L8.95851 9.2016ZM6.34667 8.8016C6.24765 8.8016 6.15269 8.84374 6.08268 8.91876C6.01267 8.99377 5.97333 9.09551 5.97333 9.2016V11.6016C5.97333 11.7077 6.01267 11.8094 6.08268 11.8844C6.15269 11.9595 6.24765 12.0016 6.34667 12.0016H6.71851C7.11456 12.0016 7.4944 11.833 7.77445 11.533C8.05451 11.2329 8.21184 10.8259 8.21184 10.4016C8.21184 9.97725 8.05451 9.57029 7.77445 9.27023C7.4944 8.97017 7.11456 8.8016 6.71851 8.8016H6.34667ZM6.72 11.2016V9.6016C6.91803 9.6016 7.10795 9.68589 7.24797 9.83591C7.388 9.98594 7.46667 10.1894 7.46667 10.4016C7.46667 10.6138 7.388 10.8173 7.24797 10.9673C7.10795 11.1173 6.91803 11.2016 6.72 11.2016ZM12.6933 14.4V13.4688C13.1346 13.244 13.44 12.7616 13.44 12.2032V8.6C13.44 8.0416 13.1346 7.56 12.6933 7.3344V6.2624C12.6932 5.83809 12.5359 5.43119 12.2558 5.1312L7.90347 0.4688C7.89193 0.457302 7.8797 0.446613 7.86688 0.4368C7.85765 0.42916 7.84868 0.421154 7.84 0.4128C7.78863 0.360857 7.73399 0.312744 7.67648 0.2688C7.65736 0.255586 7.6374 0.243823 7.61675 0.2336L7.58091 0.2144L7.54357 0.1912C7.50325 0.1664 7.46219 0.1408 7.41963 0.1216C7.27094 0.0579706 7.11357 0.0206835 6.95371 0.0112C6.93894 0.0101698 6.92423 0.00830054 6.90965 0.00559998C6.88939 0.00224649 6.86893 0.000375516 6.84843 0H2.24C1.84394 0 1.46411 0.168571 1.18405 0.468629C0.904 0.768687 0.746667 1.17565 0.746667 1.6V7.3344C0.305387 7.5592 0 8.0416 0 8.6V12.2032C0 12.7616 0.305387 13.2432 0.746667 13.4688V14.4C0.746667 14.8243 0.904 15.2313 1.18405 15.5314C1.46411 15.8314 1.84394 16 2.24 16H11.2C11.5961 16 11.9759 15.8314 12.2559 15.5314C12.536 15.2313 12.6933 14.8243 12.6933 14.4ZM11.2 14.8H2.24C2.14099 14.8 2.04603 14.7579 1.97601 14.6828C1.906 14.6078 1.86667 14.5061 1.86667 14.4V13.6032H11.5733V14.4C11.5733 14.5061 11.534 14.6078 11.464 14.6828C11.394 14.7579 11.299 14.8 11.2 14.8ZM11.5733 6.4V7.2H1.86667V1.6C1.86667 1.49391 1.906 1.39217 1.97601 1.31716C2.04603 1.24214 2.14099 1.2 2.24 1.2H6.72V4.8C6.72 5.22435 6.87733 5.63131 7.15739 5.93137C7.43744 6.23143 7.81728 6.4 8.21333 6.4H11.5733ZM10.7356 5.2H8.21333C8.11432 5.2 8.01936 5.15786 7.94935 5.08284C7.87933 5.00783 7.84 4.90609 7.84 4.8V2.0968L10.7356 5.2ZM1.30667 8.4H12.1333C12.1828 8.4 12.2303 8.42107 12.2653 8.45858C12.3003 8.49609 12.32 8.54696 12.32 8.6V12.2032C12.32 12.2562 12.3003 12.3071 12.2653 12.3446C12.2303 12.3821 12.1828 12.4032 12.1333 12.4032H1.30667C1.25716 12.4032 1.20968 12.3821 1.17467 12.3446C1.13967 12.3071 1.12 12.2562 1.12 12.2032V8.6C1.12 8.54696 1.13967 8.49609 1.17467 8.45858C1.20968 8.42107 1.25716 8.4 1.30667 8.4Z" fill="white"/>
</svg>
